/* XPM */
static char *_283d4fd57694ae3acd84f82e629b3e17mFpr9gptlZ2mNGJ[] = {
/* columns rows colors chars-per-pixel */
"16 16 6 1 ",
"  c #323C39",
". c #524B24",
"X c #7D5563",
"o c #917A46",
"O c #A3AD54",
"+ c #99E550",
/* pixels */
"oooooooooooooooo",
"oooo        oooo",
"oo            oo",
"o              o",
"o  ++OOOOOO++  o",
"o  +X......X+  o",
"o  +XXXXXXXX+  o",
"o  +oX+XX+Xo+  o",
"o  +OXXXXXXO+  o",
"o  +........+  o",
"o  +........+  o",
"o  +X......X+  o",
"o  +X......X+  o",
"o  +++X++ +++  o",
"o  ...X..X...  o",
"o..............o"
};
