/* XPM */
static char *_031a22493764a66cfe71cf7e64d9e9bLTYTHuWhi7adSDY0[] = {
/* columns rows colors chars-per-pixel */
"16 16 6 1 ",
"  c #323C39",
". c #524B24",
"X c #7D5563",
"o c #917A46",
"O c #A3AD54",
"+ c #99E550",
/* pixels */
"oooooooooooooooo",
"oooo        oooo",
"oo            oo",
"o    OOOOOO    o",
"o  XX......XX  o",
"o  X+XXXXXX+X  o",
"o  X+X+XX+X+X  o",
"o  XOXXXXXXOX  o",
"o  X........X  o",
"o  X........X  o",
"o  XX......XX  o",
"o  XX......XX  o",
"o  X++ ++ ++X  o",
"o  XXXXXX XXX  o",
"o  ...X..X...  o",
"o..............o"
};
