/* XPM */
static char *bae032f6e3b248408a8ce17bc5a00d4cpI0qS6TnfjMGGuCC[] = {
/* columns rows colors chars-per-pixel */
"16 16 4 1 ",
"  c #323C39",
". c #524B24",
"X c #917A46",
"o c #99E550",
/* pixels */
"XXXXXXXXXXXXXXXX",
"XXXXXXXXXXXXXXXX",
"XXXXXX....XXXXXX",
"XXXXX .... XXXXX",
"XXXXX  ..  XXXXX",
"XXXXXX XX XXXXXX",
"XXXX   oo   XXXX",
"XXXX oooooo XXXX",
"XXXX oooooo XXXX",
"XXXX oooooo XXXX",
"XXXX oooooo XXXX",
"XXXX        XXXX",
"XXX..........XXX",
"XXX..........XXX",
"XXXXXXXXXXXXXXXX",
"XXXXXXXXXXXXXXXX"
};
