/* XPM */
static char *f71fdaa8c5b54061be1d8be410ad878bhAufzO1XBhSXG3aj[] = {
/* columns rows colors chars-per-pixel */
"16 16 4 1 ",
"  c #323C39",
". c #524B24",
"X c #917A46",
"o c #99E550",
/* pixels */
"XXXXXXXXXXXXXXXX",
"XXXXXXXXXXXXXXXX",
"XXXXXXXXXXXXXXXX",
"XXXXXX....XXXXXX",
"XXXXX .... XXXXX",
"XXXXX  ..  XXXXX",
"XXXXXX XX XXXXXX",
"XXXX   oo   XXXX",
"XXXX oooooo XXXX",
"XXXX oooooo XXXX",
"XXXX oooooo XXXX",
"XXX. oooooo .XXX",
"XXX.        .XXX",
"XXX..........XXX",
"XXXXXXXXXXXXXXXX",
"XXXXXXXXXXXXXXXX"
};
